<?xml version="1.0" encoding="UTF-8"?>
<svg xmlns="http://www.w3.org/2000/svg" xmlns:xlink="http://www.w3.org/1999/xlink" viewBox="0 0 1200 760" preserveAspectRatio="xMidYMid slice">
  
  <defs>
    <filter id="shadow" x="-30%" y="-30%" width="160%" height="160%">
      <feDropShadow dx="0" dy="18" stdDeviation="22" flood-color="#122B16" flood-opacity="0.35"/>
    </filter>
    <filter id="soft" x="-40%" y="-40%" width="180%" height="180%">
      <feGaussianBlur stdDeviation="24"/>
    </filter>
    <filter id="blur8" x="-50%" y="-50%" width="200%" height="200%">
      <feGaussianBlur stdDeviation="10"/>
    </filter>
    <linearGradient id="skyPale" x1="0" y1="0" x2="0" y2="1">
      <stop offset="0" stop-color="#F6FBEF"/>
      <stop offset="0.5" stop-color="#E6F2D8"/>
      <stop offset="1" stop-color="#CBE6AC"/>
    </linearGradient>
    <linearGradient id="skySun" x1="0" y1="0" x2="0" y2="1">
      <stop offset="0" stop-color="#EAF5DD"/>
      <stop offset="1" stop-color="#C9E3AE"/>
    </linearGradient>
    <linearGradient id="skyGreen" x1="0" y1="0" x2="0" y2="1">
      <stop offset="0" stop-color="#1E3B24"/>
      <stop offset="1" stop-color="#0F2414"/>
    </linearGradient>
    <radialGradient id="sun" cx="0.5" cy="0.5" r="0.5">
      <stop offset="0" stop-color="#FFF9DE" stop-opacity="0.95"/>
      <stop offset="0.4" stop-color="#F4E6AE" stop-opacity="0.55"/>
      <stop offset="1" stop-color="#F4E6AE" stop-opacity="0"/>
    </radialGradient>
    <radialGradient id="ground" cx="0.5" cy="0.5" r="0.6">
      <stop offset="0" stop-color="#C7E0A4"/>
      <stop offset="1" stop-color="#9CC978"/>
    </radialGradient>
    <radialGradient id="brown" cx="0.34" cy="0.3" r="1.1">
      <stop offset="0" stop-color="#9A6A38"/>
      <stop offset="0.4" stop-color="#7C4E26"/>
      <stop offset="0.75" stop-color="#5C3519"/>
      <stop offset="1" stop-color="#3D2110"/>
    </radialGradient>
    <radialGradient id="green" cx="0.32" cy="0.27" r="1.08">
      <stop offset="0" stop-color="#B0E268"/>
      <stop offset="0.3" stop-color="#5DAE43"/>
      <stop offset="0.7" stop-color="#2F7B34"/>
      <stop offset="1" stop-color="#1D5426"/>
    </radialGradient>
    <radialGradient id="greenSoft" cx="0.34" cy="0.28" r="1.1">
      <stop offset="0" stop-color="#8CCB4F"/>
      <stop offset="0.45" stop-color="#4E9A3B"/>
      <stop offset="1" stop-color="#25612B"/>
    </radialGradient>
  </defs>

  
  <rect width="1200" height="760" fill="url(#skyPale)"/>
  <circle cx="320" cy="140" r="220" fill="url(#sun)"/>
  <circle cx="NaN" cy="NaN" r="NaN" fill="#FFFFFF" opacity="0.5" filter="url(#blur8)"/><circle cx="NaN" cy="NaN" r="NaN" fill="#FFFFFF" opacity="0.5" filter="url(#blur8)"/><circle cx="NaN" cy="NaN" r="NaN" fill="#FFFFFF" opacity="0.5" filter="url(#blur8)"/><circle cx="NaN" cy="NaN" r="NaN" fill="#FFFFFF" opacity="0.5" filter="url(#blur8)"/><circle cx="NaN" cy="NaN" r="NaN" fill="#FFFFFF" opacity="0.5" filter="url(#blur8)"/><circle cx="NaN" cy="NaN" r="NaN" fill="#FFFFFF" opacity="0.5" filter="url(#blur8)"/><circle cx="NaN" cy="NaN" r="NaN" fill="#FFFFFF" opacity="0.5" filter="url(#blur8)"/><circle cx="NaN" cy="NaN" r="NaN" fill="#FFFFFF" opacity="0.5" filter="url(#blur8)"/>
  <ellipse cx="600" cy="750" rx="620" ry="56" fill="url(#ground)"/>
  <g filter="url(#shadow)">
    
  <g>
    <ellipse cx="480" cy="605.6800000000001" rx="75.60000000000001" ry="13.44" fill="#17351C" opacity="0.4" filter="url(#blur8)"/>
    <circle cx="480" cy="520" r="84" fill="url(#greenSoft)"/>
    <ellipse cx="444.72" cy="484.72" rx="52.08" ry="38.64" fill="#FFFFFF" opacity="0.22"/>
    <ellipse cx="451.44" cy="486.4" rx="25.2" ry="16.8" fill="#FFFFFF" opacity="0.55"/>
    <path d="M 475.8 442.72 C 459 473.8 454.8 503.2 469.92 524.2" stroke="#0E3A17" stroke-width="1.54" stroke-linecap="round" fill="none" opacity="0.5"/>
    <path d="M 484.2 444.4 C 496.8 478 501.84 507.4 488.4 528.4" stroke="#0E3A17" stroke-width="1.4" stroke-linecap="round" fill="none" opacity="0.4"/>
    <path d="M 408.6 532.6 A 84 84 0 0 0 551.4 532.6" stroke="#123F1B" stroke-width="4.199999999999999" fill="none" opacity="0.35" stroke-linecap="round"/>
    <g transform="translate(478.32 441.04)">
      <path d="M 0 0 Q -4.199999999999999 -7 -1.4 -12.6" stroke="#1D5426" stroke-width="2.38" fill="none" stroke-linecap="round"/>
      <path d="M 0 0 Q 3.5 -7.699999999999999 0.7 -11.899999999999999" stroke="#1D5426" stroke-width="2.0999999999999996" fill="none" stroke-linecap="round"/>
      <circle cx="0" cy="0" r="3.2199999999999998" fill="#2F7B34"/>
    </g>
  </g>
    
  <g>
    <ellipse cx="640" cy="669.56" rx="70.2" ry="12.48" fill="#17351C" opacity="0.4" filter="url(#blur8)"/>
    <circle cx="640" cy="590" r="78" fill="url(#green)"/>
    <ellipse cx="607.24" cy="557.24" rx="48.36" ry="35.88" fill="#FFFFFF" opacity="0.22"/>
    <ellipse cx="613.48" cy="558.8" rx="23.4" ry="15.600000000000001" fill="#FFFFFF" opacity="0.55"/>
    <path d="M 636.1 518.24 C 620.5 547.1 616.6 574.4 630.64 593.9" stroke="#0E3A17" stroke-width="1.4300000000000002" stroke-linecap="round" fill="none" opacity="0.5"/>
    <path d="M 643.9 519.8 C 655.6 551 660.28 578.3 647.8 597.8" stroke="#0E3A17" stroke-width="1.3" stroke-linecap="round" fill="none" opacity="0.4"/>
    <path d="M 573.7 601.7 A 78 78 0 0 0 706.3 601.7" stroke="#123F1B" stroke-width="3.9000000000000004" fill="none" opacity="0.35" stroke-linecap="round"/>
    <g transform="translate(638.44 516.6800000000001)">
      <path d="M 0 0 Q -3.9000000000000004 -6.5 -1.3 -11.700000000000001" stroke="#1D5426" stroke-width="2.21" fill="none" stroke-linecap="round"/>
      <path d="M 0 0 Q 3.25 -7.15 0.65 -11.05" stroke="#1D5426" stroke-width="1.9500000000000002" fill="none" stroke-linecap="round"/>
      <circle cx="0" cy="0" r="2.9899999999999998" fill="#2F7B34"/>
    </g>
  </g>
    
  <g>
    <ellipse cx="770" cy="647.72" rx="81.7" ry="13.76" fill="#172C14" opacity="0.4" filter="url(#blur8)"/>
    <circle cx="770" cy="560" r="86" fill="url(#brown)"/>
    <ellipse cx="735.6" cy="523.88" rx="49.879999999999995" ry="36.12" fill="#FFFFFF" opacity="0.12"/>
    <path d="M 696.04 564.3 Q 735.6 517 795.8 506.68 Q 834.5 517 845.6800000000001 564.3" stroke="#2A1508" stroke-width="1.8633333333333335" fill="none" opacity="0.5"/>
    <path d="M 718.4 621.92 Q 757.1 568.6 823.32 620.2" stroke="#2A1508" stroke-width="1.5766666666666669" fill="none" opacity="0.45"/>
    <path d="M 739.9 633.1 Q 774.3 590.1 813 630.52" stroke="#2A1508" stroke-width="1.4333333333333333" fill="none" opacity="0.4"/>
    <path d="M 748.5 499.8 Q 774.3 542.8 795.8 503.24" stroke="#2A1508" stroke-width="1.4333333333333333" fill="none" opacity="0.35"/>
    <ellipse cx="754.52" cy="523.88" rx="4.3" ry="3.0100000000000002" fill="#241106" opacity="0.85"/><ellipse cx="788.92" cy="527.32" rx="4.3" ry="3.0100000000000002" fill="#241106" opacity="0.85"/><ellipse cx="771.72" cy="549.68" rx="4.3" ry="3.0100000000000002" fill="#241106" opacity="0.85"/>
    <path d="M 692.6 581.5 A 86 86 0 0 0 847.4 581.5" stroke="#241106" stroke-width="5.016666666666667" fill="none" opacity="0.3" stroke-linecap="round"/>
  </g>
    
  <g>
    <ellipse cx="580" cy="753.44" rx="64.8" ry="11.52" fill="#17351C" opacity="0.4" filter="url(#blur8)"/>
    <circle cx="580" cy="680" r="72" fill="url(#greenSoft)"/>
    <ellipse cx="549.76" cy="649.76" rx="44.64" ry="33.120000000000005" fill="#FFFFFF" opacity="0.22"/>
    <ellipse cx="555.52" cy="651.2" rx="21.599999999999998" ry="14.4" fill="#FFFFFF" opacity="0.55"/>
    <path d="M 576.4 613.76 C 562 640.4 558.4 665.6 571.36 683.6" stroke="#0E3A17" stroke-width="1.32" stroke-linecap="round" fill="none" opacity="0.5"/>
    <path d="M 583.6 615.2 C 594.4 644 598.72 669.2 587.2 687.2" stroke="#0E3A17" stroke-width="1.2" stroke-linecap="round" fill="none" opacity="0.4"/>
    <path d="M 518.8 690.8 A 72 72 0 0 0 641.2 690.8" stroke="#123F1B" stroke-width="3.5999999999999996" fill="none" opacity="0.35" stroke-linecap="round"/>
    <g transform="translate(578.56 612.32)">
      <path d="M 0 0 Q -3.5999999999999996 -6 -1.2 -10.799999999999999" stroke="#1D5426" stroke-width="2.04" fill="none" stroke-linecap="round"/>
      <path d="M 0 0 Q 3 -6.6 0.6 -10.2" stroke="#1D5426" stroke-width="1.7999999999999998" fill="none" stroke-linecap="round"/>
      <circle cx="0" cy="0" r="2.76" fill="#2F7B34"/>
    </g>
  </g>
  </g>
  <g transform="">
    <path d="M 200 100
      C 157.44921619647306 -29.429675104689622 66.25406752548514 -88.01751393559726 52.15884977209595 -76.19022191736494
      C 38.063632018706755 -64.36292989913261 79.92551855283247 35.620430995588166 200 100 Z"
      fill="#37702A"/>
    <path d="M 200 100 Q 118.68736737465277 3.095377945449272 52.15884977209595 -76.19022191736494" stroke="#1d5610" stroke-width="2.6" fill="none" opacity="0.6" stroke-linecap="round"/><path d="M 183.57320553023288 80.42330867584835 C 168.8613220001329 92.76804471987833 165.59201454899957 95.51131939632944 160.68805337229958 96.882956734555" stroke="#255e18" stroke-width="2" fill="none" opacity="0.55" stroke-linecap="round"/><path d="M 183.57320553023288 80.42330867584835 C 198.28508906033287 68.07857263181836 201.5543965114662 65.33529795536725 206.4583576881662 63.96366061714169" stroke="#255e18" stroke-width="2" fill="none" opacity="0.55" stroke-linecap="round"/><path d="M 167.14641106046577 60.846617351696686 C 151.20119597694423 74.22624144732201 147.6578148472728 77.19949124634985 142.34274315276562 78.68611614586378" stroke="#255e18" stroke-width="2" fill="none" opacity="0.55" stroke-linecap="round"/><path d="M 167.14641106046577 60.846617351696686 C 183.0916261439873 47.46699325607137 186.63500727365874 44.49374345704352 191.9500789681659 43.007118557529594" stroke="#255e18" stroke-width="2" fill="none" opacity="0.55" stroke-linecap="round"/><path d="M 150.71961659069865 41.269926027545026 C 133.54106995375557 55.684438174765674 129.72361514554598 58.88766309637026 123.99743293323164 60.48927555717255" stroke="#255e18" stroke-width="2" fill="none" opacity="0.55" stroke-linecap="round"/><path d="M 150.71961659069865 41.269926027545026 C 167.89816322764173 26.85541388032438 171.71561803585132 23.65218895871979 177.44180024816566 22.0505764979175" stroke="#255e18" stroke-width="2" fill="none" opacity="0.55" stroke-linecap="round"/><path d="M 134.29282212093153 21.693234703393372 C 115.8809439305669 37.14263490220935 111.7894154438192 40.57583494639068 105.65212271369765 42.29243496848134" stroke="#255e18" stroke-width="2" fill="none" opacity="0.55" stroke-linecap="round"/><path d="M 134.29282212093153 21.693234703393372 C 152.70470031129616 6.243834504577396 156.79622879804387 2.8106344603960665 162.93352152816541 1.0940344383054068" stroke="#255e18" stroke-width="2" fill="none" opacity="0.55" stroke-linecap="round"/><path d="M 117.86602765116442 2.1165433792416906 C 99.45414946079978 17.565943578057666 95.36262097405208 20.999143622238996 89.22532824393053 22.715743644329656" stroke="#255e18" stroke-width="2" fill="none" opacity="0.55" stroke-linecap="round"/><path d="M 117.86602765116442 2.1165433792416906 C 136.27790584152905 -13.332856819574285 140.36943432827675 -16.766056863755615 146.5067270583983 -18.482656885846275" stroke="#255e18" stroke-width="2" fill="none" opacity="0.55" stroke-linecap="round"/><path d="M 101.4392331813973 -17.46014794490995 C 84.26068654445422 -3.045635797689304 80.44323173624464 0.15758912391528668 74.71704952393029 1.7592015847175766" stroke="#255e18" stroke-width="2" fill="none" opacity="0.55" stroke-linecap="round"/><path d="M 101.4392331813973 -17.46014794490995 C 118.61777981834038 -31.874660092130593 122.43523462654996 -35.077885013735184 128.1614168388643 -36.67949747453747" stroke="#255e18" stroke-width="2" fill="none" opacity="0.55" stroke-linecap="round"/><path d="M 85.01243871163018 -37.03683926906163 C 69.06722362810865 -23.657215173436313 65.5238424984372 -20.683965374408462 60.20877080393002 -19.19734047489454" stroke="#255e18" stroke-width="2" fill="none" opacity="0.55" stroke-linecap="round"/><path d="M 85.01243871163018 -37.03683926906163 C 100.95765379515171 -50.41646336468695 104.50103492482316 -53.3897131637148 109.81610661933034 -54.87633806322872" stroke="#255e18" stroke-width="2" fill="none" opacity="0.55" stroke-linecap="round"/><path d="M 68.58564424186306 -56.613530593213255 C 53.87376071176309 -44.26879454918326 50.60445326062976 -41.525519872732154 45.700492083929774 -40.1538825345066" stroke="#255e18" stroke-width="2" fill="none" opacity="0.55" stroke-linecap="round"/><path d="M 68.58564424186306 -56.613530593213255 C 83.29752777196305 -68.95826663724324 86.56683522309638 -71.70154131369435 91.47079639979636 -73.0731786519199" stroke="#255e18" stroke-width="2" fill="none" opacity="0.55" stroke-linecap="round"/></g>
  <g transform="">
    <path d="M 1000 90
      C 1125.2951110753052 22.821319299744175 1168.9770796326538 -81.50914424257316 1154.2690263247694 -93.85066634855471
      C 1139.5609730168849 -106.19218845453626 1044.4008178819413 -45.05705228315438 1000 90 Z"
      fill="#2E5E24"/>
    <path d="M 1000 90 Q 1084.8479644786232 -11.1178664917051 1154.2690263247694 -93.85066634855471" stroke="#14440a" stroke-width="2.6" fill="none" opacity="0.6" stroke-linecap="round"/><path d="M 1017.1410029249744 69.57214818349392 C 1001.78947228487 56.69068448537567 998.3780210315135 53.828136996904945 993.2608441514788 52.39686325266959" stroke="#1c4c12" stroke-width="2" fill="none" opacity="0.55" stroke-linecap="round"/><path d="M 1017.1410029249744 69.57214818349392 C 1032.4925335650787 82.45361188161218 1035.9039848184352 85.3161593700829 1041.02116169847 86.74743311431826" stroke="#1c4c12" stroke-width="2" fill="none" opacity="0.55" stroke-linecap="round"/><path d="M 1034.2820058499487 49.144296366987845 C 1017.6435205454045 35.18294948459621 1013.9460793666169 32.08042795517584 1008.3999175984355 30.529167190465664" stroke="#1c4c12" stroke-width="2" fill="none" opacity="0.55" stroke-linecap="round"/><path d="M 1034.2820058499487 49.144296366987845 C 1050.920491154493 63.10564324937948 1054.6179323332806 66.20816477879984 1060.1640941014618 67.75942554351002" stroke="#1c4c12" stroke-width="2" fill="none" opacity="0.55" stroke-linecap="round"/><path d="M 1051.4230087749231 28.716444550481768 C 1033.497568805939 13.675214483816745 1029.5141377017203 10.33271891344674 1023.5389910453923 8.661471128261738" stroke="#1c4c12" stroke-width="2" fill="none" opacity="0.55" stroke-linecap="round"/><path d="M 1051.4230087749231 28.716444550481768 C 1069.3484487439073 43.75767461714679 1073.331879848126 47.100170187516795 1079.307026504454 48.7714179727018" stroke="#1c4c12" stroke-width="2" fill="none" opacity="0.55" stroke-linecap="round"/><path d="M 1068.5640116998975 8.28859273397569 C 1049.3516170664734 -7.83252051696272 1045.0821960368237 -11.41499012828237 1038.678064492349 -13.206224933942188" stroke="#1c4c12" stroke-width="2" fill="none" opacity="0.55" stroke-linecap="round"/><path d="M 1068.5640116998975 8.28859273397569 C 1087.7764063333216 24.4097059849141 1092.0458273629713 27.99217559623375 1098.449958907446 29.78341040189357" stroke="#1c4c12" stroke-width="2" fill="none" opacity="0.55" stroke-linecap="round"/><path d="M 1085.7050146248719 -12.139259082530401 C 1066.4926199914478 -28.260372333468812 1062.223198961798 -31.84284194478846 1055.8190674173234 -33.63407675044828" stroke="#1c4c12" stroke-width="2" fill="none" opacity="0.55" stroke-linecap="round"/><path d="M 1085.7050146248719 -12.139259082530401 C 1104.917409258296 3.9818541684080095 1109.1868302879457 7.564323779727658 1115.5909618324204 9.355558585387477" stroke="#1c4c12" stroke-width="2" fill="none" opacity="0.55" stroke-linecap="round"/><path d="M 1102.8460175498462 -32.567110899036464 C 1084.920577580862 -47.60834096570149 1080.9371464766434 -50.95083653607149 1074.9619998203154 -52.622084321256494" stroke="#1c4c12" stroke-width="2" fill="none" opacity="0.55" stroke-linecap="round"/><path d="M 1102.8460175498462 -32.567110899036464 C 1120.7714575188304 -17.525880832371442 1124.754888623049 -14.183385262001437 1130.730035279377 -12.512137476816434" stroke="#1c4c12" stroke-width="2" fill="none" opacity="0.55" stroke-linecap="round"/><path d="M 1119.9870204748206 -52.994962715542556 C 1103.3485351702764 -66.9563095979342 1099.6510939914888 -70.05883112735455 1094.1049322233075 -71.61009189206473" stroke="#1c4c12" stroke-width="2" fill="none" opacity="0.55" stroke-linecap="round"/><path d="M 1119.9870204748206 -52.994962715542556 C 1136.6255057793649 -39.03361583315092 1140.3229469581524 -35.93109430373055 1145.8691087263337 -34.379833539020375" stroke="#1c4c12" stroke-width="2" fill="none" opacity="0.55" stroke-linecap="round"/><path d="M 1137.128023399795 -73.42281453204862 C 1121.7764927596907 -86.30427823016687 1118.3650415063341 -89.1668257186376 1113.2478646262994 -90.59809946287295" stroke="#1c4c12" stroke-width="2" fill="none" opacity="0.55" stroke-linecap="round"/><path d="M 1137.128023399795 -73.42281453204862 C 1152.4795540398993 -60.541350833930366 1155.8910052932558 -57.67880334545964 1161.0081821732906 -56.24752960122429" stroke="#1c4c12" stroke-width="2" fill="none" opacity="0.55" stroke-linecap="round"/></g>

</svg>